HIERARCHY
ROOT Hips
{
  OFFSET 5.84602e-005 68.8428 3.50346
  CHANNELS 6 Xposition Yposition Zposition Zrotation Xrotation Yrotation
  JOINT Spine
  {
    OFFSET 0 8.597 -4.6522
    CHANNELS 3 Zrotation Xrotation Yrotation
    JOINT Spine1
    {
      OFFSET 0 7.8454 0.4098
      CHANNELS 3 Zrotation Xrotation Yrotation
      JOINT Spine2
      {
        OFFSET 0 9.7078 -2.1609
        CHANNELS 3 Zrotation Xrotation Yrotation
        JOINT Neck
        {
          OFFSET 0 21.8761 -0.4549
          CHANNELS 3 Zrotation Xrotation Yrotation
          JOINT Head
          {
            OFFSET 0 12.3537 3.3602
            CHANNELS 3 Zrotation Xrotation Yrotation
            End Site
            {
              OFFSET 0.0001 18.9506 0.5657
            }
          }
        }
        JOINT LeftShoulder
        {
          OFFSET 2.2086 21.1115 7.2329
          CHANNELS 3 Zrotation Xrotation Yrotation
          JOINT LeftArm
          {
            OFFSET 13.1193 3.0282 -4.8998
            CHANNELS 3 Zrotation Xrotation Yrotation
            JOINT LeftForeArm
            {
              OFFSET 27.4081 -0.0973053 -0.2375
              CHANNELS 3 Zrotation Xrotation Yrotation
              JOINT LeftHand
              {
                OFFSET 22.8641 0.0662994 -0.1369
                CHANNELS 3 Zrotation Xrotation Yrotation
                JOINT LeftHandIndex1
                {
                  OFFSET 8.8614 0.775009 2.4612
                  CHANNELS 3 Zrotation Xrotation Yrotation
                  JOINT LeftHandIndex2
                  {
                    OFFSET 3.3146 -0.808304 0.5841
                    CHANNELS 3 Zrotation Xrotation Yrotation
                    JOINT LeftHandIndex3
                    {
                      OFFSET 2.2628 -0.552002 0.3989
                      CHANNELS 3 Zrotation Xrotation Yrotation
                      End Site
                      {
                        OFFSET 1.6102 -0.4807 0.2612
                      }
                    }
                  }
                }
                JOINT LeftHandMiddle1
                {
                  OFFSET 8.9937 0.895004 0.2143
                  CHANNELS 3 Zrotation Xrotation Yrotation
                  JOINT LeftHandMiddle2
                  {
                    OFFSET 4.0984 0.0113983 -0.0242
                    CHANNELS 3 Zrotation Xrotation Yrotation
                    JOINT LeftHandMiddle3
                    {
                      OFFSET 2.2716 0.00689697 -0.0138001
                      CHANNELS 3 Zrotation Xrotation Yrotation
                      End Site
                      {
                        OFFSET 2.0404 -0.1441 0.0027
                      }
                    }
                  }
                }
                JOINT LeftHandRing1
                {
                  OFFSET 8.5234 0.597198 -2.0164
                  CHANNELS 3 Zrotation Xrotation Yrotation
                  JOINT LeftHandRing2
                  {
                    OFFSET 3.7188 -0.188293 -0.2328
                    CHANNELS 3 Zrotation Xrotation Yrotation
                    JOINT LeftHandRing3
                    {
                      OFFSET 2.1191 -0.106598 -0.1332
                      CHANNELS 3 Zrotation Xrotation Yrotation
                      End Site
                      {
                        OFFSET 1.8737 -0.2304 -0.0886
                      }
                    }
                  }
                }
                JOINT LeftHandPinky1
                {
                  OFFSET 7.9094 -0.601089 -3.4825
                  CHANNELS 3 Zrotation Xrotation Yrotation
                  JOINT LeftHandPinky2
                  {
                    OFFSET 2.2874 -0.477005 -0.6314
                    CHANNELS 3 Zrotation Xrotation Yrotation
                    JOINT LeftHandPinky3
                    {
                      OFFSET 1.6774 -0.349396 -0.4633
                      CHANNELS 3 Zrotation Xrotation Yrotation
                      End Site
                      {
                        OFFSET 1.4888 -0.4091 -0.3416
                      }
                    }
                  }
                }
                JOINT LeftHandThumb1
                {
                  OFFSET 1.833 -1.3875 1.3896
                  CHANNELS 3 Zrotation Xrotation Yrotation
                  JOINT LeftHandThumb2
                  {
                    OFFSET 3.4129 -1.121 2.5732
                    CHANNELS 3 Zrotation Xrotation Yrotation
                    JOINT LeftHandThumb3
                    {
                      OFFSET 2.2474 -0.804199 1.6192
                      CHANNELS 3 Zrotation Xrotation Yrotation
                      End Site
                      {
                        OFFSET 1.6527 -0.5689 1.1317
                      }
                    }
                  }
                }
              }
            }
          }
        }
        JOINT RightShoulder
        {
          OFFSET -2.2086 21.1115 7.2329
          CHANNELS 3 Zrotation Xrotation Yrotation
          JOINT RightArm
          {
            OFFSET -13.1216 3.0287 -4.9007
            CHANNELS 3 Zrotation Xrotation Yrotation
            JOINT RightForeArm
            {
              OFFSET -27.4081 -0.0973053 -0.2375
              CHANNELS 3 Zrotation Xrotation Yrotation
              JOINT RightHand
              {
                OFFSET -22.8641 0.0664063 -0.1369
                CHANNELS 3 Zrotation Xrotation Yrotation
                JOINT RightHandIndex1
                {
                  OFFSET -8.8614 0.774994 2.4612
                  CHANNELS 3 Zrotation Xrotation Yrotation
                  JOINT RightHandIndex2
                  {
                    OFFSET -3.3146 -0.808304 0.5841
                    CHANNELS 3 Zrotation Xrotation Yrotation
                    JOINT RightHandIndex3
                    {
                      OFFSET -2.2628 -0.552002 0.3989
                      CHANNELS 3 Zrotation Xrotation Yrotation
                      End Site
                      {
                        OFFSET -1.6102 -0.4807 0.2612
                      }
                    }
                  }
                }
                JOINT RightHandMiddle1
                {
                  OFFSET -8.9937 0.894989 0.2143
                  CHANNELS 3 Zrotation Xrotation Yrotation
                  JOINT RightHandMiddle2
                  {
                    OFFSET -4.0984 0.0113983 -0.0242
                    CHANNELS 3 Zrotation Xrotation Yrotation
                    JOINT RightHandMiddle3
                    {
                      OFFSET -2.2716 0.00691223 -0.0138001
                      CHANNELS 3 Zrotation Xrotation Yrotation
                      End Site
                      {
                        OFFSET -2.0404 -0.1441 0.0027
                      }
                    }
                  }
                }
                JOINT RightHandRing1
                {
                  OFFSET -8.5234 0.597198 -2.0164
                  CHANNELS 3 Zrotation Xrotation Yrotation
                  JOINT RightHandRing2
                  {
                    OFFSET -3.7188 -0.188309 -0.2328
                    CHANNELS 3 Zrotation Xrotation Yrotation
                    JOINT RightHandRing3
                    {
                      OFFSET -2.1191 -0.106598 -0.1332
                      CHANNELS 3 Zrotation Xrotation Yrotation
                      End Site
                      {
                        OFFSET -1.8737 -0.2304 -0.0886
                      }
                    }
                  }
                }
                JOINT RightHandPinky1
                {
                  OFFSET -7.9094 -0.601105 -3.4825
                  CHANNELS 3 Zrotation Xrotation Yrotation
                  JOINT RightHandPinky2
                  {
                    OFFSET -2.2874 -0.477005 -0.6314
                    CHANNELS 3 Zrotation Xrotation Yrotation
                    JOINT RightHandPinky3
                    {
                      OFFSET -1.6774 -0.349396 -0.4633
                      CHANNELS 3 Zrotation Xrotation Yrotation
                      End Site
                      {
                        OFFSET -1.4888 -0.4091 -0.3416
                      }
                    }
                  }
                }
                JOINT RightHandThumb1
                {
                  OFFSET -1.833 -1.38751 1.3896
                  CHANNELS 3 Zrotation Xrotation Yrotation
                  JOINT RightHandThumb2
                  {
                    OFFSET -3.41299 -1.12099 2.5732
                    CHANNELS 3 Zrotation Xrotation Yrotation
                    JOINT RightHandThumb3
                    {
                      OFFSET -2.24741 -0.804108 1.6192
                      CHANNELS 3 Zrotation Xrotation Yrotation
                      End Site
                      {
                        OFFSET -1.6527 -0.5689 1.1317
                      }
                    }
                  }
                }
              }
            }
          }
        }
      }
    }
  }
  JOINT RightUpLeg
  {
    OFFSET -9.1966 3.8861 -0.7581
    CHANNELS 3 Zrotation Xrotation Yrotation
    JOINT RightLeg
    {
      OFFSET -0.7359 -41.0265 0
      CHANNELS 3 Zrotation Xrotation Yrotation
      JOINT RightFoot
      {
        OFFSET 0 -40.2855 0
        CHANNELS 3 Zrotation Xrotation Yrotation
        JOINT RightToeBase
        {
          OFFSET 0 -5.6122 11.7359
          CHANNELS 3 Zrotation Xrotation Yrotation
          End Site
          {
            OFFSET 0 0 7.8731
          }
        }
      }
    }
  }
  JOINT LeftUpLeg
  {
    OFFSET 9.1965 3.8864 -0.7581
    CHANNELS 3 Zrotation Xrotation Yrotation
    JOINT LeftLeg
    {
      OFFSET 0.7359 -41.0268 0
      CHANNELS 3 Zrotation Xrotation Yrotation
      JOINT LeftFoot
      {
        OFFSET 0 -40.2855 0
        CHANNELS 3 Zrotation Xrotation Yrotation
        JOINT LeftToeBase
        {
          OFFSET 0 -5.6122 11.7359
          CHANNELS 3 Zrotation Xrotation Yrotation
          End Site
          {
            OFFSET 0 0 7.8731
          }
        }
      }
    }
  }
}
MOTION
Frames:	4
Frame Time:	0.0333333
5.84602e-005 68.8428 3.50346 0 0 -0 0 0 -0 0 0 -0 0 0 -0 0 0 -0 -0 0 0.00300229 0 0 -0 0 0 -0 0 0 -0 0 0 -0 0 0 -0 0 0 -0 0 0 -0 0 0 -0 -0.0146107 -8.87603e-005 -2.63497e-007 2.99804e-018 -2.42657e-020 -1.42182e-022 0 0 -0 -0.0187562 -0.001176 5.858e-005 5.06224e-018 3.88251e-019 1.21329e-020 0 0 -0 -0.012269 -0.00324817 0.000675346 -1.74678e-018 3.88251e-019 -0 0 0 -0 0 0 -0 0 0 -0 0 0 -0 0 0 -0 0 0 -0 0 0 -0 0 0 -0 0 0 -0 0 0 -0 0 0 -0 0.0149955 -9.10982e-005 2.64101e-007 -9.69331e-018 1.21329e-020 -4.7394e-023 0 0 -0 0.0189956 -0.00119102 -5.96516e-005 -5.41541e-019 0 2.42657e-020 0 0 -0 0.0122698 -0.00324857 -0.000673756 -2.00796e-019 0 -1.94126e-019 0 0 -0 0 0 -0 0 0 -0 3.39842 1.33031 -0.0637918 -5.65207e-008 0.834868 -0.000436188 -3.39935 -2.16518 -0.0642563 -8.89002e-024 -1.18485e-023 -1.48106e-024 -3.39844 1.35642 0.0640283 -3.18788e-007 0.782166 -0.000588827 3.39931 -2.13858 0.0634662 1.1399e-023 0 -0 
0.6505 14.9166 13.3293 -8.38072e-015 -11.0008 180 -0.0325999 1.11805 -0.0427396 -0.0643838 2.2362 -0.0848672 -0.0643839 2.2362 -0.0848673 2.91305e-006 7.63145e-005 6.16616e-006 -1.14338e-008 5.10939e-006 0.00300232 -25.6102 -10.6216 -25.3403 -24.1601 8.54396 -37.0809 -41.2841 67.7488 1.068 73.3746 -15.2933 -1.06772 4.18414e-007 7.26633e-007 -1.33633e-007 4.18414e-007 7.26633e-007 -1.33633e-007 1.87168e-006 -1.10195e-007 -3.1258e-007 4.18414e-007 7.26633e-007 -1.33633e-007 -0.0146163 -8.55994e-005 -2.48768e-006 1.8717e-006 -1.10155e-007 -3.12596e-007 4.18414e-007 7.26633e-007 -1.33633e-007 -0.0187488 -0.00117442 5.81026e-005 2.6751e-006 -3.20981e-007 4.80589e-007 4.18414e-007 7.26633e-007 -1.33633e-007 -0.0122452 -0.00323726 0.00067014 1.87169e-006 -1.10168e-007 -3.12646e-007 4.18414e-007 7.26633e-007 -1.33633e-007 4.18414e-007 7.26633e-007 -1.33633e-007 1.87168e-006 -1.10195e-007 -3.1258e-007 25.8177 -11.0443 24.0396 22.1663 7.45851 43.7065 44.9347 67.7942 -1.01501 -73.9649 -13.2563 0.472714 -1.98785e-016 -1.88845e-015 3.18055e-015 -2.78299e-015 -3.37934e-015 -0 -1.98785e-016 -2.28602e-015 -3.18055e-015 -1.98785e-016 -1.88845e-015 3.18055e-015 0.0149815 -9.09021e-005 3.25713e-006 -2.38542e-015 -4.47266e-015 -0 -1.98785e-016 -1.88845e-015 3.18055e-015 0.0190139 -0.00119166 -5.63548e-005 9.93923e-016 9.93923e-017 -6.36111e-015 -1.98785e-016 -1.88845e-015 3.18055e-015 0.0122738 -0.00324863 -0.000673132 5.96354e-016 4.96962e-016 -0 -1.98785e-016 -1.88845e-015 3.18055e-015 -2.78299e-015 -3.37934e-015 -0 -1.98785e-016 -2.28602e-015 -3.18055e-015 -129.538 -45.7971 -144.346 -140.341 65.5339 142.318 3.8982 -8.13879 -7.99249 1.72874e-007 4.21244e-008 -3.25102e-006 129.541 -45.8166 144.332 140.371 65.5579 -142.348 -3.90314 -8.1329 7.97035 2.29785e-007 -9.61462e-008 3.22262e-006 
0.650499 14.7197 13.0622 -8.22648e-015 -9.78235 180 -0.0335345 1.72421 -0.0417072 -0.0658574 3.44847 -0.0824603 -0.0658573 3.44846 -0.0824602 -0.0340147 0.0787678 -0.042055 -0.028573 0.0687633 0.00300235 -24.8506 -12.9143 -25.6152 -24.1601 8.54395 -37.0809 -44.2566 68.7893 1.09023 73.2855 -13.7368 -0.81003 1.98785e-015 1.43125e-014 -9.54166e-015 -6.13549e-007 1.23015e-006 -3.68691e-007 0 6.36111e-015 -0 1.98785e-015 1.43125e-014 -9.54166e-015 -0.0146207 -8.86982e-005 -4.99406e-006 -5.1684e-015 -2.18663e-015 -0 1.98785e-015 1.43125e-014 -9.54166e-015 -0.0187699 -0.00117643 6.16418e-005 -3.97569e-016 4.57205e-015 -1.59028e-014 1.98785e-015 1.43125e-014 -9.54166e-015 -0.0122977 -0.00325514 0.000671773 -3.08973e-031 5.56597e-015 3.18055e-015 1.98785e-015 1.43125e-014 -9.54166e-015 -6.13549e-007 1.23015e-006 -3.68691e-007 0 6.36111e-015 -0 25.3939 -13.014 24.4595 22.1663 7.45852 43.7065 46.8721 67.686 -0.976815 -74.0968 -12.0766 0.226003 1.75716e-006 2.13381e-007 2.81159e-006 5.14221e-007 -8.94137e-007 -3.2431e-006 2.15482e-006 -5.24653e-007 2.66611e-006 1.75716e-006 2.13381e-007 2.81159e-006 0.0149955 -9.31869e-005 -1.42684e-007 2.15506e-006 -5.24306e-007 2.66618e-006 1.75716e-006 2.13381e-007 2.81159e-006 0.0190132 -0.00119185 -6.71681e-005 2.15515e-006 -5.24228e-007 2.66617e-006 1.75716e-006 2.13381e-007 2.81159e-006 0.0122428 -0.00324055 -0.000678346 2.15509e-006 -5.24407e-007 2.66609e-006 1.75716e-006 2.13381e-007 2.81159e-006 5.14221e-007 -8.94137e-007 -3.2431e-006 2.15482e-006 -5.24653e-007 2.66611e-006 -128.34 -45.7009 -143.177 -140.837 65.2243 142.742 3.32658 -8.08753 -7.4247 -8.19308e-008 -1.65001e-007 -1.19499e-006 128.342 -45.7201 143.162 140.87 65.2479 -142.776 -3.33168 -8.08114 7.40217 0 7.95139e-016 -0 
0.6505 14.5263 12.7961 -8.0734e-015 -8.56419 180 -0.0344707 2.33208 -0.0406429 -0.0673683 4.66425 -0.0799797 -0.0673683 4.66425 -0.0799797 -0.0679692 0.156332 -0.0840693 -0.0571512 0.137541 0.00603817 -24.0897 -15.2257 -25.8629 -24.1601 8.54395 -37.0809 -47.2298 69.9604 1.12178 73.1895 -12.176 -0.550669 -3.71321e-007 1.27353e-007 -5.35611e-007 -1.98785e-015 -7.15625e-015 -0 3.71321e-007 -1.27353e-007 5.35611e-007 -3.71321e-007 1.27353e-007 -5.35611e-007 -0.0146355 -8.65518e-005 -4.76741e-006 2.38542e-015 5.56597e-015 -1.27222e-014 -3.71321e-007 1.27353e-007 -5.35611e-007 -0.0187511 -0.00117331 5.65026e-005 1.98785e-015 -8.74653e-015 -6.36111e-015 -3.71321e-007 1.27353e-007 -5.35611e-007 -0.0122981 -0.00325485 0.000675981 3.69677e-007 -1.27851e-007 5.35678e-007 -3.71321e-007 1.27353e-007 -5.35611e-007 -1.98785e-015 -7.15625e-015 -0 3.71321e-007 -1.27353e-007 5.35611e-007 24.9792 -14.9973 24.8702 22.1663 7.45852 43.7065 48.8167 67.5641 -0.936885 -74.2232 -10.8942 -0.0173564 7.96687e-007 -1.47701e-006 -2.79458e-007 3.98344e-007 -7.38505e-007 -1.39729e-007 3.98344e-007 -7.38505e-007 -1.39729e-007 7.96687e-007 -1.47701e-006 -2.79458e-007 0.0149988 -9.18471e-005 1.51577e-006 3.98334e-007 -7.38523e-007 -1.39633e-007 7.96687e-007 -1.47701e-006 -2.79458e-007 0.018959 -0.00119027 -6.04731e-005 3.9833e-007 -7.38527e-007 -1.39611e-007 7.96687e-007 -1.47701e-006 -2.79458e-007 0.0122278 -0.0032365 -0.000677428 3.98336e-007 -7.38515e-007 -1.39661e-007 7.96687e-007 -1.47701e-006 -2.79458e-007 3.98344e-007 -7.38505e-007 -1.39729e-007 3.98344e-007 -7.38505e-007 -1.39729e-007 -127.145 -45.5867 -142.012 -141.322 64.9128 143.156 2.75409 -8.04211 -6.85607 -2.97844e-007 -2.41641e-007 -1.18795e-006 127.147 -45.6056 141.996 141.358 64.9362 -143.194 -2.75936 -8.03529 6.83313 5.28049e-007 -3.28504e-007 4.40486e-006 
